<?xml version="1.0" encoding="utf-8"?>
<!-- Generator: Adobe Illustrator 27.5.0, SVG Export Plug-In . SVG Version: 6.00 Build 0)  -->
<svg version="1.1" id="Layer_1" xmlns="http://www.w3.org/2000/svg" xmlns:xlink="http://www.w3.org/1999/xlink" x="0px" y="0px"
	 viewBox="0 0 800 800" style="enable-background:new 0 0 800 800;" xml:space="preserve">
<rect x="3.026" y="69.188" style="fill:#F77567;" width="794.968" height="662.474"/>
<g>
	<polygon style="fill:#E54545;" points="500.226,295.816 500.417,295.627 497.833,284.454 485.108,297.18 487.353,306.895 
		452.556,341.344 445.81,334.599 439.219,356.823 461.446,350.235 454.701,343.485 489.531,309.011 498.673,311.124 
		511.396,298.399 	"/>
	<path style="fill:#E54545;" d="M472.832,330.582c4.94,6.824,7.86,15.21,7.86,24.277c0,22.903-18.566,41.471-41.476,41.471
		c-22.902,0-41.468-18.568-41.468-41.469c0-22.904,18.565-41.472,41.47-41.472c10.158,0,19.455,3.655,26.666,9.715l11.096-10.986
		c-10.06-8.895-23.276-14.306-37.764-14.306c-31.506,0-57.044,25.543-57.044,57.048c0,31.504,25.538,57.047,57.046,57.047
		c31.508,0,57.051-25.543,57.046-57.046c0.005-13.344-4.594-25.606-12.267-35.325L472.832,330.582z"/>
	<path style="fill:#E54545;" d="M464.478,348.195c-0.623-2.351-1.553-4.565-2.76-6.607l-1.937,1.913L464.478,348.195z"/>
	<path style="fill:#E54545;" d="M454.904,333.975c-2.663-2.001-5.706-3.502-9.018-4.37l6.678,6.682L454.904,333.975z"/>
	<path style="fill:#E54545;" d="M439.217,343.261c0.091,0,0.185,0.014,0.279,0.018l4.201-14.158
		c-1.459-0.249-2.948-0.408-4.479-0.408c-14.441,0-26.147,11.708-26.147,26.148c0,14.437,11.706,26.144,26.146,26.144
		c14.444,0,26.146-11.707,26.146-26.146c0-0.682-0.048-1.349-0.097-2.016l-14.685,4.353c-1.085,5.281-5.76,9.26-11.365,9.26
		c-6.4,0-11.592-5.193-11.592-11.596C427.625,348.458,432.816,343.261,439.217,343.261z"/>
</g>
<g>
	<path style="fill:#E54545;" d="M354.018,474.147c-6.406,11.318-6.602,25.566-0.511,37.18l3.975-2.087
		c-5.308-10.122-5.136-23.027,0.445-32.885L354.018,474.147z"/>
	<path style="fill:#E54545;" d="M349.307,472.056l-3.482-2.831c-10.69,13.142-11.015,33.353-0.759,47.017l3.592-2.697
		C339.599,501.482,339.88,483.647,349.307,472.056z"/>
	<path style="fill:#E54545;" d="M341.988,465.259l-3.063-3.279c-8.046,7.506-12.742,18.59-12.89,30.412
		c-0.149,12.001,4.31,23.345,12.241,31.123l3.142-3.203c-7.061-6.928-11.029-17.081-10.896-27.867
		C330.654,481.846,334.835,471.939,341.988,465.259z"/>
	<path style="fill:#E54545;" d="M397.084,511.327v19.465v13.306c0,3.402,2.759,6.163,6.157,6.163c3.398,0,6.157-2.761,6.157-6.163
		v-13.304v-19.467h-6.157H397.084z"/>
	<path style="fill:#E54545;" d="M410.239,477.634h-19.107l-22.122-10.709c-5.567,6.787-8.311,16.317-8.294,25.841
		c0.016,9.553,2.802,19.096,8.294,25.843l22.122-10.71h5.952h12.314h0.841c8.358,0,15.132-6.771,15.132-15.133
		C425.371,484.409,418.598,477.634,410.239,477.634z"/>
</g>
<g>
	<path style="fill:#E54545;" d="M549.299,457.847H442.431v65.597h40.946L465.2,548.635h6.379l18.183-25.191h1.467l-0.003,25.191
		h4.643h4.636l0.004-25.191h1.463l18.18,25.191h6.383l-18.181-25.191h40.946V457.847z M544.795,519.387l-97.857,0.004v-57.486
		h97.857V519.387z"/>
	<polygon style="fill:#E54545;" points="477.467,512.18 528.532,512.182 528.532,508.68 479.745,508.68 489.394,499.58 
		495.703,507.604 510.753,492.334 518.769,503.02 530.074,489.688 526.986,487.565 518.965,497.019 511.175,486.629 496.049,501.98 
		489.841,494.083 474.366,508.68 464.023,508.68 464.023,470.863 460.137,470.863 460.137,512.18 470.65,512.182 	"/>
	<polygon style="fill:#E54545;" points="497.214,491.078 508.899,479.214 508.899,482.256 512.788,482.256 512.788,472.851 
		502.492,472.851 502.492,476.353 506.518,476.353 494.3,488.749 	"/>
</g>
<path style="fill:#E54545;" d="M268.979,505.25c-8.862,8.861-8.862,23.229,0,32.091c7.853,7.853,20.017,8.733,28.854,2.67
	l9.537,9.54l-1.525,1.522l18.606,18.606l4.479-4.479l4.478-4.479l-18.605-18.607l-1.524,1.527l-9.539-9.535
	c6.062-8.837,5.183-21.005-2.668-28.856C292.207,496.389,277.841,496.389,268.979,505.25z M295.755,510.566
	c5.926,5.927,5.926,15.535,0,21.458c-5.926,5.929-15.535,5.929-21.461,0c-5.926-5.923-5.926-15.531,0-21.458
	C280.221,504.64,289.83,504.64,295.755,510.566z"/>
<g>
	<path style="fill:#E54545;" d="M308.878,296.807c0-19.442-15.76-35.205-35.204-35.207c-19.448,0.002-35.208,15.765-35.208,35.207
		c0,11.912,5.921,22.433,14.973,28.806l-4.999,8.609l6.146,3.564l5.046-8.691c4.301,1.872,9.047,2.919,14.037,2.919
		c4.993,0,9.738-1.046,14.042-2.919l5.042,8.691l6.15-3.564l-5.001-8.609C302.957,319.24,308.878,308.719,308.878,296.807z
		 M273.671,324.218c-15.14,0-27.41-12.273-27.41-27.411c0-15.136,12.27-27.413,27.41-27.413s27.413,12.277,27.413,27.413
		C301.083,311.945,288.81,324.218,273.671,324.218z"/>
	
		<rect x="260.862" y="312.324" transform="matrix(0.5019 -0.8649 0.8649 0.5019 -140.1096 384.7753)" style="fill:#E54545;" width="6.333" height="3.429"/>
	
		<rect x="253.54" y="305.195" transform="matrix(0.8669 -0.4985 0.4985 0.8669 -118.8236 168.8211)" style="fill:#E54545;" width="6.333" height="3.426"/>
	
		<rect x="252.214" y="293.905" transform="matrix(0.0028 -1 1 0.0028 -43.8632 550.1543)" style="fill:#E54545;" width="3.429" height="6.332"/>
	
		<rect x="254.725" y="283.999" transform="matrix(0.5019 -0.8649 0.8649 0.5019 -120.6449 364.8318)" style="fill:#E54545;" width="3.43" height="6.332"/>
	<polygon style="fill:#E54545;" points="266.63,281.733 263.484,276.242 260.507,277.951 263.661,283.439 	"/>
	
		<rect x="280.149" y="277.865" transform="matrix(0.5021 -0.8648 0.8648 0.5021 -100.7241 384.2007)" style="fill:#E54545;" width="6.331" height="3.427"/>
	
		<rect x="287.471" y="284.993" transform="matrix(0.8673 -0.4978 0.4978 0.8673 -104.1515 182.7209)" style="fill:#E54545;" width="6.335" height="3.431"/>
	
		<rect x="291.699" y="293.378" transform="matrix(0.0025 -1 1 0.0025 -3.8514 589.2271)" style="fill:#E54545;" width="3.431" height="6.332"/>
	<polygon style="fill:#E54545;" points="289.028,303.381 287.3,306.345 292.781,309.524 294.5,306.558 	"/>
	
		<rect x="282.055" y="310.61" transform="matrix(0.8673 -0.4978 0.4978 0.8673 -118.5322 182.8801)" style="fill:#E54545;" width="3.43" height="6.332"/>
	<polygon style="fill:#E54545;" points="272.227,313.385 272.214,319.717 273.407,319.717 275.642,319.722 275.653,313.388 
		273.407,313.385 	"/>
	<polygon style="fill:#E54545;" points="275.114,280.232 275.131,273.901 273.407,273.899 271.699,273.892 271.686,280.229 
		273.407,280.23 	"/>
	<path style="fill:#E54545;" d="M273.671,292.288c-2.354,0-4.258,1.905-4.258,4.257c0,2.354,1.904,4.26,4.258,4.26
		c2.353-0.002,4.261-1.906,4.261-4.26C277.932,294.193,276.023,292.288,273.671,292.288z"/>
	<path style="fill:#E54545;" d="M268.813,257.571c-3.13-7.038-11.483-10.153-18.658-6.962c-7.179,3.194-10.454,11.481-7.328,18.518
		L268.813,257.571z"/>
	<path style="fill:#E54545;" d="M297.189,250.609c-7.174-3.191-15.529-0.077-18.658,6.962l25.984,11.556
		C307.643,262.09,304.368,253.803,297.189,250.609z"/>
</g>
<g>
	<g>
		<path style="fill:#FFFFFF;" d="M255.787,408.524c2.948-4.936,8.289-13.053,14.853-21.717l-10.919-2.442l-22.859,22.858
			l17.649,2.551L255.787,408.524z"/>
		<path style="fill:#FFFFFF;" d="M279.504,432.16l-1.254,1.261l2.506,17.696l22.86-22.858l-2.478-10.893
			C292.492,423.91,284.411,429.233,279.504,432.16z"/>
		<path style="fill:#FFFFFF;" d="M270.975,427.269c-5.525,12.342-16.663,11.485-21.224,10.961
			c-0.521-4.561-1.378-15.696,10.958-21.221l-3.233-3.236c-24.286,9.335-22.675,30.121-21.722,38.455
			c8.334,0.953,29.126,2.563,38.458-21.739l-0.952-0.935L270.975,427.269z"/>
		<path style="fill:#FFFFFF;" d="M314.689,352.024c-8.568,3.487-17.457,9.364-25.849,17.755c-5.137,5.136-10.397,11.441-15.187,17.7
			c-6.724,8.794-12.508,17.508-15.639,22.8c-0.03,0.031,2.395,2.455,2.395,2.455c0.001,0,3.174,3.17,3.174,3.17
			c-0.002,0,4.247,4.248,4.247,4.248l4.247,4.251l3.17,3.164l2.415,2.419c0.021,0.019,0.095-0.058,0.095-0.058
			c5.288-3.133,13.947-8.883,22.697-15.569c6.275-4.799,12.599-10.074,17.745-15.219c8.391-8.395,14.268-17.283,17.756-25.849
			l-10.633-10.632L314.689,352.024z M314.526,387.164c-3.784,3.784-9.923,3.785-13.708-0.003c-3.787-3.779-3.787-9.922-0.004-13.71
			c3.787-3.784,9.928-3.784,13.711,0C318.314,377.237,318.311,383.377,314.526,387.164z"/>
		<path style="fill:#FFFFFF;" d="M339.21,348.769c-6.434-1.239-13.856-0.524-21.629,2.176l19.454,19.454
			C339.734,362.625,340.447,355.202,339.21,348.769z"/>
	</g>
	<path style="fill:#FFFFFF;" d="M146.67,398.792c-4.613-3.978-11.111-6.943-19.863-9.059c-9.818-2.374-13.213-4.04-14.36-4.822
		c-1.318-0.901-1.882-2.05-1.882-3.851c0-2.178,0.852-3.02,1.775-3.605c1.772-1.128,4.203-1.704,7.226-1.704
		c3.37,0,6.855,0.605,10.36,1.795c3.394,1.152,6.07,2.601,7.954,4.299l3.466,3.129l11.963-16.899l-2.945-2.456
		c-3.963-3.3-8.705-5.888-14.101-7.686c-5.327-1.774-10.776-2.673-16.196-2.673c-8.635,0-16.039,2.254-22.005,6.695
		c-6.344,4.724-9.56,11.474-9.56,20.059c0,8.571,2.886,15.105,8.484,19.346c2.641,2.13,5.688,3.87,9.045,5.167
		c3.158,1.228,7.615,2.527,13.625,3.974c6.481,1.56,9.398,2.999,10.704,3.931c1.249,0.893,1.784,1.991,1.784,3.673
		c0,1.7-0.612,2.875-2.048,3.926c-1.764,1.29-4.346,1.943-7.677,1.943c-7.546,0-14.71-3.037-21.9-9.281l-3.201-2.776l-13.555,16.299
		l2.996,2.668c10.21,9.089,22.093,13.699,35.324,13.699c9.304,0,17.009-2.467,22.896-7.328c6.124-5.061,9.229-11.728,9.229-19.822
		C154.21,409.377,151.674,403.108,146.67,398.792z"/>
	<polygon style="fill:#FFFFFF;" points="168.137,377.545 191.862,377.545 191.862,443.683 213.364,443.683 213.364,377.545 
		237.086,377.545 237.086,357.16 168.137,357.16 	"/>
	<path style="fill:#FFFFFF;" d="M428.755,386.715c0-10.179-3.137-17.793-9.313-22.63c-5.953-4.662-15.171-6.926-28.185-6.926
		h-33.244v86.523h21.502v-26.301h11.055l18.688,26.301h27.028l-22.094-30.671C423.743,408.244,428.755,399.255,428.755,386.715z
		 M406.917,386.658c0,3.826-0.869,6.514-2.59,7.991c-1.068,0.922-4.113,2.466-12.508,2.466h-12.303v-19.684h12.638
		c8.126,0,11.268,1.331,12.417,2.123C406.127,380.626,406.917,383.015,406.917,386.658z"/>
	<polygon style="fill:#FFFFFF;" points="442.444,377.545 466.169,377.545 466.169,443.683 487.674,443.683 487.674,377.545 
		511.396,377.545 511.396,357.16 442.444,357.16 	"/>
	<path style="fill:#FFFFFF;" d="M608.949,404.617c0,6.112-1.472,10.925-4.373,14.314c-2.778,3.239-6.508,4.814-11.398,4.814
		c-4.892,0-8.622-1.575-11.4-4.814c-2.901-3.387-4.368-8.201-4.368-14.314V357.16h-21.505v48.021c0,12.37,3.546,22.12,10.533,28.974
		c6.959,6.84,15.955,10.31,26.74,10.31c10.781,0,19.777-3.466,26.743-10.31c6.987-6.861,10.53-16.611,10.53-28.974V357.16h-21.502
		V404.617z"/>
	<path style="fill:#FFFFFF;" d="M707.6,364.954c-6.273-5.244-15.634-7.794-28.625-7.794H647.97v86.523h21.502v-22.941h9.729
		c12.568,0,21.775-2.453,28.147-7.496c6.574-5.213,9.908-13.31,9.908-24.072C717.256,378.458,714.008,370.309,707.6,364.954z
		 M669.472,377.431h9.284c7.834,0,11.652,1.448,13.476,2.661c0.788,0.524,3.188,2.126,3.188,8.022c0,4.285-0.953,7.47-2.837,9.456
		c-1.025,1.086-3.935,2.898-11.925,2.898h-11.185V377.431z"/>
</g>
<rect x="147.188" y="296.758" width="21.106" height="2.109"/>
<rect x="332.893" y="400.811" style="fill:#FFFFFF;" width="21.106" height="2.11"/>
<rect x="469.027" y="482.918" style="fill:#FFFFFF;" width="21.105" height="2.109"/>
<rect x="660.804" y="469.117" style="fill:#FFFFFF;" width="21.106" height="2.108"/>
<rect x="397.269" y="305.853" style="fill:#FFFFFF;" width="21.105" height="2.11"/>
<rect x="78.109" y="330.89" width="21.106" height="2.11"/>
<rect x="411.14" y="320.491" width="42.212" height="2.109"/>
<rect x="578.199" y="295.492" width="42.213" height="2.109"/>
<rect x="296.51" y="236.753" width="42.213" height="2.11"/>
<rect x="154.943" y="289.185" width="42.213" height="2.109"/>
<rect x="92.761" y="460.926" width="42.212" height="2.108"/>
<rect x="620.412" y="455.261" width="31.145" height="2.108"/>
<rect x="411.14" y="469.117" width="42.212" height="2.108"/>
<rect x="196.171" y="517.554" width="42.213" height="2.109"/>
<g>
	<rect x="84.74" y="469.809" width="2.111" height="2.109"/>
	<rect x="89.385" y="469.809" width="2.11" height="2.109"/>
	<rect x="94.026" y="469.809" width="2.112" height="2.109"/>
	<rect x="98.671" y="469.809" width="2.11" height="2.109"/>
</g>
<g>
	<rect x="169.034" y="416.311" style="fill:#FFFFFF;" width="2.112" height="2.108"/>
	<rect x="173.678" y="416.311" style="fill:#FFFFFF;" width="2.112" height="2.108"/>
	<rect x="178.32" y="416.311" style="fill:#FFFFFF;" width="2.112" height="2.108"/>
	<rect x="182.964" y="416.311" style="fill:#FFFFFF;" width="2.112" height="2.108"/>
</g>
<g>
	<rect x="674.594" y="335.1" style="fill:#FFFFFF;" width="2.108" height="2.109"/>
	<rect x="679.236" y="335.1" style="fill:#FFFFFF;" width="2.109" height="2.109"/>
	<rect x="683.879" y="335.1" style="fill:#FFFFFF;" width="2.11" height="2.109"/>
	<rect x="688.523" y="335.1" style="fill:#FFFFFF;" width="2.108" height="2.109"/>
</g>
<g>
	<rect x="500.508" y="399.757" style="fill:#FFFFFF;" width="2.109" height="2.109"/>
	<rect x="505.15" y="399.757" style="fill:#FFFFFF;" width="2.111" height="2.109"/>
	<rect x="509.793" y="399.757" style="fill:#FFFFFF;" width="2.111" height="2.109"/>
	<rect x="514.438" y="399.757" style="fill:#FFFFFF;" width="2.109" height="2.109"/>
</g>
<g>
	<rect x="507.647" y="271.431" style="fill:#FFFFFF;" width="2.111" height="2.109"/>
	<rect x="512.29" y="271.431" style="fill:#FFFFFF;" width="2.112" height="2.109"/>
	<rect x="516.935" y="271.431" style="fill:#FFFFFF;" width="2.109" height="2.109"/>
	<rect x="521.577" y="271.431" style="fill:#FFFFFF;" width="2.112" height="2.109"/>
</g>
<g>
	<rect x="256.608" y="232.877" style="fill:#FFFFFF;" width="2.111" height="2.109"/>
	<rect x="261.252" y="232.877" style="fill:#FFFFFF;" width="2.111" height="2.109"/>
	<rect x="265.895" y="232.877" style="fill:#FFFFFF;" width="2.111" height="2.109"/>
	<rect x="270.538" y="232.877" style="fill:#FFFFFF;" width="2.111" height="2.109"/>
</g>
<rect x="147.664" y="272.485" width="2.01" height="2.109"/>
<rect x="143.24" y="272.485" width="2.01" height="2.109"/>
<rect x="138.819" y="272.485" width="2.009" height="2.109"/>
<rect x="134.396" y="272.485" width="2.009" height="2.109"/>
<rect x="129.974" y="272.485" width="2.011" height="2.109"/>
<rect x="125.552" y="272.485" width="2.01" height="2.109"/>
<rect x="121.13" y="272.485" width="2.009" height="2.109"/>
<rect x="116.707" y="272.485" width="2.011" height="2.109"/>
<rect x="112.285" y="272.485" width="2.009" height="2.109"/>
<g>
	<rect x="192.734" y="497.55" width="2.009" height="2.109"/>
	<rect x="188.311" y="497.55" width="2.009" height="2.109"/>
	<rect x="183.889" y="497.55" width="2.011" height="2.109"/>
	<rect x="179.466" y="497.55" width="2.011" height="2.109"/>
	<rect x="175.045" y="497.55" width="2.009" height="2.109"/>
	<rect x="170.623" y="497.55" width="2.01" height="2.109"/>
	<rect x="166.2" y="497.55" width="2.011" height="2.109"/>
	<rect x="161.777" y="497.55" width="2.011" height="2.109"/>
	<rect x="157.356" y="497.55" width="2.01" height="2.109"/>
</g>
<g>
	<rect x="219.296" y="529.74" style="fill:#FFFFFF;" width="2.01" height="2.109"/>
	<rect x="214.874" y="529.74" style="fill:#FFFFFF;" width="2.009" height="2.109"/>
	<rect x="210.451" y="529.74" style="fill:#FFFFFF;" width="2.011" height="2.109"/>
	<rect x="206.029" y="529.74" style="fill:#FFFFFF;" width="2.009" height="2.109"/>
	<rect x="201.608" y="529.74" style="fill:#FFFFFF;" width="2.009" height="2.109"/>
	<rect x="197.185" y="529.74" style="fill:#FFFFFF;" width="2.01" height="2.109"/>
	<rect x="192.763" y="529.74" style="fill:#FFFFFF;" width="2.01" height="2.109"/>
	<rect x="188.34" y="529.74" style="fill:#FFFFFF;" width="2.011" height="2.109"/>
	<rect x="183.919" y="529.74" style="fill:#FFFFFF;" width="2.009" height="2.109"/>
</g>
<g>
	<rect x="160.929" y="309.387" style="fill:#FFFFFF;" width="2.011" height="2.109"/>
	<rect x="156.506" y="309.387" style="fill:#FFFFFF;" width="2.011" height="2.109"/>
	<rect x="152.085" y="309.387" style="fill:#FFFFFF;" width="2.009" height="2.109"/>
	<rect x="147.663" y="309.387" style="fill:#FFFFFF;" width="2.009" height="2.109"/>
	<rect x="143.24" y="309.387" style="fill:#FFFFFF;" width="2.009" height="2.109"/>
	<rect x="138.819" y="309.387" style="fill:#FFFFFF;" width="2.009" height="2.109"/>
	<rect x="134.395" y="309.387" style="fill:#FFFFFF;" width="2.011" height="2.109"/>
	<rect x="129.974" y="309.387" style="fill:#FFFFFF;" width="2.011" height="2.109"/>
	<rect x="125.551" y="309.387" style="fill:#FFFFFF;" width="2.009" height="2.109"/>
</g>
<g>
	<rect x="646.131" y="312.721" style="fill:#FFFFFF;" width="2.01" height="2.109"/>
	<rect x="641.708" y="312.721" style="fill:#FFFFFF;" width="2.011" height="2.109"/>
	<rect x="637.287" y="312.721" style="fill:#FFFFFF;" width="2.009" height="2.109"/>
	<rect x="632.865" y="312.721" style="fill:#FFFFFF;" width="2.009" height="2.109"/>
	<rect x="628.441" y="312.721" style="fill:#FFFFFF;" width="2.01" height="2.109"/>
	<rect x="624.019" y="312.721" style="fill:#FFFFFF;" width="2.01" height="2.109"/>
	<rect x="619.598" y="312.721" style="fill:#FFFFFF;" width="2.01" height="2.109"/>
	<rect x="615.176" y="312.721" style="fill:#FFFFFF;" width="2.01" height="2.109"/>
	<rect x="610.751" y="312.721" style="fill:#FFFFFF;" width="2.011" height="2.109"/>
</g>
<rect x="512.949" y="258.075" width="2.01" height="2.109"/>
<rect x="508.527" y="258.075" width="2.01" height="2.109"/>
<rect x="504.105" y="258.075" width="2.009" height="2.109"/>
<rect x="499.683" y="258.075" width="2.01" height="2.109"/>
<rect x="495.26" y="258.075" width="2.011" height="2.109"/>
<rect x="490.837" y="258.075" width="2.009" height="2.109"/>
<rect x="486.416" y="258.075" width="2.009" height="2.109"/>
<rect x="481.994" y="258.075" width="2.009" height="2.109"/>
<rect x="477.57" y="258.075" width="2.01" height="2.109"/>
<rect x="326.649" y="221.807" width="2.009" height="2.109"/>
<rect x="322.228" y="221.807" width="2.009" height="2.109"/>
<rect x="317.805" y="221.807" width="2.011" height="2.109"/>
<rect x="313.383" y="221.807" width="2.01" height="2.109"/>
<rect x="308.96" y="221.807" width="2.01" height="2.109"/>
<rect x="304.538" y="221.807" width="2.011" height="2.109"/>
<rect x="300.116" y="221.807" width="2.01" height="2.109"/>
<rect x="295.694" y="221.807" width="2.01" height="2.109"/>
<rect x="291.272" y="221.807" width="2.009" height="2.109"/>
<rect x="411.239" y="493.565" width="2.01" height="2.108"/>
<rect x="406.815" y="493.565" width="2.012" height="2.108"/>
<rect x="402.393" y="493.565" width="2.013" height="2.108"/>
<rect x="397.972" y="493.565" width="2.009" height="2.108"/>
<rect x="393.55" y="493.565" width="2.01" height="2.108"/>
<rect x="389.128" y="493.565" width="2.009" height="2.108"/>
<rect x="384.705" y="493.565" width="2.011" height="2.108"/>
<rect x="380.283" y="493.565" width="2.011" height="2.108"/>
<rect x="375.862" y="493.565" width="2.009" height="2.108"/>
<rect x="320.301" y="528.529" width="2.01" height="2.109"/>
<rect x="315.879" y="528.529" width="2.009" height="2.109"/>
<rect x="311.457" y="528.529" width="2.01" height="2.109"/>
<rect x="307.034" y="528.529" width="2.011" height="2.109"/>
<rect x="302.613" y="528.529" width="2.009" height="2.109"/>
<rect x="298.189" y="528.529" width="2.011" height="2.109"/>
<rect x="293.768" y="528.529" width="2.01" height="2.109"/>
<rect x="289.345" y="528.529" width="2.01" height="2.109"/>
<rect x="284.924" y="528.529" width="2.01" height="2.109"/>
<rect x="678.19" y="483.974" width="2.011" height="2.108"/>
<rect x="673.769" y="483.974" width="2.011" height="2.108"/>
<rect x="669.345" y="483.974" width="2.012" height="2.108"/>
<rect x="664.923" y="483.974" width="2.011" height="2.108"/>
<rect x="660.501" y="483.974" width="2.01" height="2.108"/>
<rect x="656.079" y="483.974" width="2.011" height="2.108"/>
<rect x="651.654" y="483.974" width="2.014" height="2.108"/>
<rect x="647.233" y="483.974" width="2.01" height="2.108"/>
<rect x="642.813" y="483.974" width="2.011" height="2.108"/>
<rect x="647.135" y="260.546" width="2.011" height="2.11"/>
<rect x="642.713" y="260.546" width="2.012" height="2.11"/>
<rect x="638.291" y="260.546" width="2.011" height="2.11"/>
<rect x="633.868" y="260.546" width="2.011" height="2.11"/>
<rect x="629.446" y="260.546" width="2.01" height="2.11"/>
<rect x="625.024" y="260.546" width="2.011" height="2.11"/>
<rect x="620.6" y="260.546" width="2.014" height="2.11"/>
<rect x="616.179" y="260.546" width="2.011" height="2.11"/>
<rect x="611.758" y="260.546" width="2.011" height="2.11"/>
<path d="M526.143,237.433h0.727c0.909,0,1.799,1.051,1.807,2.245l1.056,8.916c0,2.287,2.262,3.879,4.292,3.879h12.126v-2.109
	h-12.126c-0.989,0-2.182-0.79-2.189-1.893l-1.054-8.917c0-2.253-1.828-4.23-3.911-4.23h-0.727c-0.406,0-0.714-0.118-0.861-0.333
	c-0.14-0.198-0.152-0.495-0.04-0.841l4.999-8.48l0.08-0.17c0.381-1.029,0.457-2.356,0.532-3.641
	c0.044-0.784,0.088-1.524,0.194-2.079c2.427-12.481,10.381-19.081,23.001-19.081c14.143,0,23.485,7.114,24.99,19.028
	c0.078,0.619,0.117,1.19,0.138,1.644l0.014,1.058c0,0.013,0.014,1.199-0.153,2.682c-0.446,3.973-3.676,9.565-6.55,13.475
	l1.701,1.251c1.473-2.005,6.325-8.969,6.946-14.488c0.176-1.572,0.218-2.441,0.167-2.953c0.057-0.525,0.026-1.401-0.168-2.932
	c-1.652-13.07-11.777-20.872-27.085-20.872c-13.563,0-22.466,7.382-25.072,20.788c-0.135,0.694-0.181,1.503-0.23,2.358
	c-0.063,1.09-0.128,2.212-0.377,2.95l-4.999,8.481l-0.08,0.17c-0.382,1.032-0.287,2.074,0.259,2.861
	C524.096,236.983,525.041,237.433,526.143,237.433z"/>
<polygon points="225.705,263.897 181.602,263.897 191.607,253.423 197.101,261.184 210.253,246.357 217.217,256.664 
	226.545,244.448 224.866,243.167 217.323,253.05 210.479,242.921 197.287,257.793 191.849,250.112 176.67,266.006 225.705,266.006 
	"/>
<polygon points="197.982,249.304 209.406,236.427 209.523,238.26 211.629,238.126 211.283,232.706 205.789,233.064 205.927,235.17 
	207.808,235.047 196.406,247.902 "/>
<path d="M470.522,284.769c0-5.881-2.293-11.409-6.453-15.567c-4.158-4.161-9.688-6.45-15.567-6.45c-5.88,0-11.408,2.289-15.567,6.45
	c-8.583,8.583-8.583,22.551,0,31.134c4.158,4.16,9.687,6.449,15.567,6.449c4.571,0,8.92-1.398,12.587-3.969l29.778,29.775l5.46-5.46
	l-29.778-29.773C469.118,293.69,470.522,289.34,470.522,284.769z M434.43,298.844c-7.763-7.762-7.763-20.39,0-28.152
	c3.759-3.76,8.757-5.829,14.072-5.829c5.316,0,10.315,2.069,14.076,5.829c3.76,3.761,5.832,8.761,5.832,14.077
	c0,5.316-2.072,10.316-5.832,14.075c-3.761,3.761-8.76,5.83-14.076,5.83C443.186,304.674,438.188,302.604,434.43,298.844z
	 M490.867,329.605l-14.363-14.361l2.475-2.475l14.363,14.361L490.867,329.605z M477.488,311.276l-2.478,2.477l-12.24-12.24
	c0.443-0.378,0.884-0.761,1.299-1.178c0.418-0.416,0.801-0.855,1.179-1.297L477.488,311.276z"/>
<path d="M437.313,273.576c-2.989,2.99-4.635,6.963-4.635,11.19c0,4.228,1.645,8.202,4.635,11.192l1.494-1.491
	c-2.591-2.592-4.02-6.038-4.02-9.702c0-3.661,1.429-7.105,4.02-9.695L437.313,273.576z"/>
<path d="M452.75,504.266l0.745-0.747l-6.41-6.405l-9.44,9.44l-4.015,15.343l-26.305,26.306l-6.218-6.219l-4.936,18.864l18.865-4.935
	l-6.22-6.219l26.308-26.309l15.337-4.011l9.445-9.443l-6.413-6.411L452.75,504.266z M399.127,557.893l3.091-11.814l8.726,8.725
	L399.127,557.893z M449.377,517.479l-11.299,2.954l6.923-6.924l-1.492-1.49l-6.924,6.922l2.957-11.297l7.543-7.546l4.92,4.916
	l4.918,4.918L449.377,517.479z"/>
<path d="M429.093,532.292c6.48,7.521,10.052,17.138,10.052,27.077c-0.001,22.879-18.615,41.492-41.495,41.492
	c-22.879,0-41.493-18.613-41.493-41.492s18.614-41.496,41.494-41.496c9.919,0,19.518,3.556,27.031,10.013l1.373-1.6
	c-7.895-6.786-17.982-10.521-28.404-10.521c-24.043,0-43.603,19.561-43.605,43.604c0,24.044,19.561,43.603,43.604,43.603
	c24.043,0,43.607-19.559,43.607-43.603c0-10.446-3.751-20.551-10.563-28.454L429.093,532.292z"/>
<path d="M397.657,530.639c6.545,0,12.713,2.147,17.831,6.208l1.312-1.651c-5.497-4.362-12.115-6.666-19.143-6.666
	c-17.012,0-30.846,13.834-30.846,30.84c0,8.239,3.208,15.982,9.032,21.808c5.825,5.826,13.569,9.033,21.806,9.033
	c17.006,0,30.842-13.833,30.842-30.841c0-7.043-2.436-13.932-6.86-19.394l-1.643,1.329c4.123,5.088,6.391,11.505,6.391,18.065
	c0,15.842-12.887,28.732-28.73,28.732c-7.673,0-14.887-2.989-20.314-8.417c-5.425-5.426-8.414-12.641-8.414-20.315
	C368.921,543.529,381.81,530.639,397.657,530.639z"/>
<path d="M397.649,541.795c-9.69,0-17.573,7.883-17.573,17.573c0,9.69,7.883,17.575,17.573,17.575c4.695,0,9.107-1.829,12.428-5.148
	c3.319-3.32,5.146-7.732,5.146-12.427h-2.108c0,4.13-1.607,8.012-4.528,10.934c-2.922,2.922-6.807,4.53-10.937,4.53
	c-8.526,0-15.463-6.937-15.463-15.465c0-8.526,6.937-15.464,15.463-15.464V541.795z"/>
<path d="M396.656,555.619l-0.546-2.039c-2.469,0.662-4.251,2.82-4.43,5.369c-0.114,1.6,0.403,3.145,1.452,4.354
	c1.051,1.209,2.508,1.936,4.104,2.05c0.141,0.011,0.282,0.016,0.422,0.016c2.664,0,5.054-1.786,5.776-4.378l-2.033-0.567
	c-0.492,1.768-2.184,2.963-4.016,2.825c-1.035-0.072-1.978-0.545-2.659-1.329c-0.679-0.784-1.014-1.785-0.939-2.821
	C393.902,557.445,395.057,556.049,396.656,555.619z"/>
<path d="M409.222,279.397v-20.268v-1.055v-5.836c0-3.467,3.12-7.707,6.04-10.52c4.94-4.765,7.66-11.333,7.66-18.496
	c0-14.208-11.564-25.768-25.772-25.768c-14.208,0-25.768,11.56-25.768,25.768c0,7.177,2.719,13.749,7.656,18.502
	c2.921,2.812,6.043,7.051,6.043,10.514v5.836v1.055v20.268h0.085c0.684,4.608,5.794,8.202,11.984,8.202
	c6.192,0,11.302-3.594,11.988-8.202H409.222z M407.111,260.184v2.693h-19.919v-2.693H407.111z M387.192,264.986h19.919v2.695
	h-19.919V264.986z M387.192,269.79h19.919v2.695h-19.919V269.79z M387.192,274.595h19.919v2.693h-19.919V274.595z M380.501,240.203
	c-4.52-4.353-7.008-10.383-7.008-16.981c0-13.045,10.611-23.658,23.656-23.658c13.046,0,23.659,10.613,23.659,23.658
	c0,6.584-2.489,12.613-7.013,16.977c-1.568,1.51-6.685,6.845-6.685,12.04v5.836h-2.596v-28.458h-2.112v28.458h-10.506v-28.458
	h-2.112v28.458h-2.593v-5.836C387.192,247.046,382.071,241.714,380.501,240.203z M397.15,285.49c-4.991,0-9.123-2.651-9.836-6.092
	h19.674C406.274,282.838,402.142,285.49,397.15,285.49z"/>
<path d="M389.362,223.399l-0.747,0.748c0.922,0.92,2.133,1.38,3.344,1.38c1.208,0,2.419-0.46,3.341-1.38
	c1.022-1.02,2.682-1.02,3.7-0.003c0.892,0.894,2.08,1.387,3.344,1.387c1.262,0,2.45-0.493,3.34-1.384c1.021-1.02,2.683-1.02,3.704,0
	l1.49-1.495c-1.841-1.841-4.84-1.843-6.685,0l0.745,0.747l-0.745-0.745c-0.988,0.986-2.713,0.986-3.7,0
	c-1.841-1.845-4.84-1.845-6.684-0.002l0.746,0.747l-0.747-0.745c-1.02,1.016-2.679,1.018-3.7-0.002
	c-1.843-1.841-4.839-1.843-6.683,0l1.493,1.495c1.02-1.02,2.68-1.02,3.698-0.003L389.362,223.399z"/>
<rect x="396.094" y="182.061" width="2.112" height="12.418"/>
<rect x="355.846" y="222.31" width="12.416" height="2.109"/>
<rect x="426.037" y="222.31" width="12.418" height="2.109"/>
<rect x="378.549" y="186.762" transform="matrix(0.8661 -0.4999 0.4999 0.8661 -45.6295 215.6239)" width="2.111" height="12.417"/>
<rect x="360.547" y="239.858" transform="matrix(0.8659 -0.5001 0.5001 0.8659 -71.325 215.7287)" width="12.419" height="2.111"/>
<rect x="421.336" y="204.762" transform="matrix(0.8663 -0.4995 0.4995 0.8663 -45.65 241.0618)" width="12.416" height="2.11"/>
<rect x="365.701" y="199.609" transform="matrix(0.4999 -0.8661 0.8661 0.4999 5.154 420.5611)" width="2.11" height="12.417"/>
<rect x="426.489" y="234.705" transform="matrix(0.5002 -0.8659 0.8659 0.5002 5.0767 490.6226)" width="2.11" height="12.418"/>
<rect x="408.488" y="191.916" transform="matrix(0.4999 -0.8661 0.8661 0.4999 40.2562 455.6604)" width="12.42" height="2.11"/>
<path d="M195.889,466.541c0.441-0.859,0.813-1.753,1.109-2.672h6.149v-11.018h-6.15c-0.295-0.918-0.665-1.811-1.108-2.673
	l4.352-4.349l-7.791-7.793l-4.35,4.352c-0.863-0.441-1.757-0.813-2.671-1.107v-6.152h-11.02v6.152
	c-0.919,0.296-1.813,0.665-2.673,1.107l-4.347-4.352l-7.792,7.793l4.35,4.349c-0.443,0.864-0.814,1.758-1.108,2.673h-6.153v11.021
	h6.153c0.295,0.914,0.665,1.809,1.108,2.67l-4.35,4.349l7.792,7.793l4.347-4.353c0.855,0.438,1.749,0.81,2.673,1.105v6.153h11.02
	v-6.153c0.92-0.296,1.813-0.666,2.671-1.105l4.35,4.353l7.791-7.793L195.889,466.541z M188.464,471.711l-0.7,0.401
	c-1.149,0.658-2.384,1.169-3.669,1.521l-0.776,0.214v5.634h-6.8v-5.634l-0.776-0.214c-1.295-0.353-2.53-0.864-3.671-1.521
	l-0.701-0.401l-3.982,3.988l-4.807-4.809l3.987-3.983l-0.403-0.702c-0.663-1.159-1.174-2.392-1.52-3.664l-0.21-0.779h-5.639v-6.802
	h5.639l0.21-0.78c0.344-1.27,0.855-2.503,1.52-3.665l0.401-0.699l-3.985-3.985l4.807-4.807l3.981,3.982l0.7-0.399
	c1.155-0.66,2.391-1.17,3.67-1.519l0.779-0.212v-5.637h6.8v5.637l0.777,0.212c1.272,0.345,2.506,0.857,3.671,1.521l0.699,0.397
	l3.984-3.982l4.807,4.807l-3.986,3.984l0.4,0.7c0.661,1.153,1.172,2.39,1.521,3.67l0.212,0.775h5.634v6.8h-5.63l-0.212,0.776
	c-0.352,1.28-0.864,2.516-1.525,3.67l-0.4,0.702l3.986,3.982l-4.807,4.809L188.464,471.711z"/>
<path d="M179.917,448.067c-5.674,0-10.291,4.616-10.291,10.293c0,5.675,4.616,10.291,10.291,10.291
	c5.677,0,10.294-4.616,10.294-10.291C190.211,452.684,185.594,448.067,179.917,448.067z M179.917,466.542
	c-4.511,0-8.18-3.671-8.18-8.182c0-4.511,3.669-8.184,8.18-8.184c4.512,0,8.184,3.673,8.184,8.184
	C188.101,462.871,184.429,466.542,179.917,466.542z"/>
<path d="M628.866,361.471l-4.354-4.351c0.44-0.859,0.811-1.752,1.111-2.671h6.148V343.43h-6.153c-0.295-0.917-0.665-1.81-1.106-2.67
	l4.354-4.35l-7.79-7.792l-4.353,4.35c-0.863-0.441-1.756-0.813-2.67-1.106v-6.152h-11.019v6.152
	c-0.918,0.296-1.814,0.665-2.673,1.106l-4.349-4.35l-7.792,7.792l4.351,4.35c-0.441,0.864-0.814,1.757-1.106,2.67h-6.153v11.021
	h6.153c0.295,0.915,0.665,1.808,1.106,2.67l-4.351,4.35l7.792,7.793l4.349-4.352c0.855,0.438,1.749,0.809,2.673,1.105v6.153h11.019
	v-6.153c0.92-0.297,1.815-0.667,2.67-1.105l4.353,4.352L628.866,361.471z M616.389,362.692c-1.15,0.658-2.383,1.169-3.668,1.521
	l-0.778,0.213v5.635h-6.798v-5.635l-0.779-0.213c-1.293-0.352-2.527-0.864-3.669-1.521l-0.699-0.401l-3.985,3.988l-4.807-4.807
	l3.987-3.985l-0.403-0.701c-0.664-1.159-1.176-2.391-1.52-3.664l-0.21-0.78h-5.64v-6.801h5.64l0.21-0.78
	c0.344-1.269,0.856-2.503,1.52-3.665l0.4-0.7l-3.984-3.985l4.807-4.808l3.981,3.983l0.702-0.4c1.155-0.659,2.39-1.169,3.671-1.518
	l0.779-0.211v-5.637h6.798v5.637l0.778,0.211c1.271,0.345,2.507,0.857,3.671,1.52l0.698,0.398l3.986-3.983l4.805,4.808l-3.986,3.983
	l0.399,0.702c0.66,1.154,1.172,2.389,1.521,3.668l0.212,0.776h5.634v6.8h-5.628l-0.214,0.776c-0.352,1.28-0.865,2.514-1.525,3.67
	l-0.399,0.701l3.986,3.983l-4.805,4.807l-3.986-3.988L616.389,362.692z"/>
<path d="M608.541,338.647c-5.674,0-10.29,4.617-10.29,10.294c0,5.674,4.616,10.29,10.29,10.29c5.677,0,10.295-4.616,10.295-10.29
	C618.836,343.264,614.218,338.647,608.541,338.647z M608.541,357.122c-4.51,0-8.181-3.67-8.181-8.18
	c0-4.513,3.671-8.185,8.181-8.185c4.513,0,8.184,3.672,8.184,8.185C616.725,353.452,613.054,357.122,608.541,357.122z"/>
<path d="M586.481,493.565h-50.216v-55.747h50.216v19.832h2.112v-24.75c0-5.326-4.332-9.657-9.658-9.657H543.81
	c-5.323,0-9.655,4.331-9.655,9.657v74.547c0,5.324,4.332,9.655,9.655,9.655h3.97l11.009,9.959l1.416-1.567l-9.277-8.392h28.008
	c5.326,0,9.658-4.331,9.658-9.655v-40.207h-2.112V493.565z M543.81,425.352h35.125c4.163,0,7.546,3.386,7.546,7.548v2.809h-50.216
	v-2.809C536.266,428.737,539.65,425.352,543.81,425.352z M578.935,514.991H543.81c-4.16,0-7.545-3.386-7.545-7.545v-11.773h50.216
	v11.773C586.481,511.605,583.099,514.991,578.935,514.991z"/>
<path d="M561.375,498.63c-3.295,0-5.978,2.68-5.978,5.975c0,3.294,2.683,5.974,5.978,5.974c3.293,0,5.974-2.68,5.974-5.974
	C567.349,501.31,564.668,498.63,561.375,498.63z M561.375,508.469c-2.131,0-3.866-1.734-3.866-3.864c0-2.13,1.735-3.865,3.866-3.865
	c2.129,0,3.863,1.735,3.863,3.865C565.238,506.734,563.504,508.469,561.375,508.469z"/>
<polygon points="582.477,459.328 604.435,479.209 604.435,526.276 606.543,526.276 606.543,478.274 583.894,457.766 "/>
<path d="M523.322,482.113c0-3.537,2.876-6.416,6.415-6.416v-2.11c-3.539,0-6.415-2.876-6.415-6.413c0-3.538,2.876-6.416,6.415-6.416
	v-2.11c-3.539,0-6.415-2.88-6.415-6.419c0-3.538,2.876-6.416,6.415-6.416v-2.11c-4.7,0-8.526,3.826-8.526,8.526
	c0,3.216,1.789,6.021,4.422,7.474c-2.633,1.453-4.422,4.259-4.422,7.472s1.788,6.018,4.422,7.469
	c-2.634,1.454-4.422,4.258-4.422,7.471c0,3.242,1.82,6.068,4.491,7.512c-2.671,1.441-4.491,4.268-4.491,7.508
	c0,4.702,3.826,8.525,8.526,8.525v-2.108c-3.539,0-6.415-2.879-6.415-6.417c0-3.536,2.876-6.415,6.415-6.415l1.059-0.075v-2.109
	h-1.059C526.198,488.533,523.322,485.652,523.322,482.113z"/>
<path d="M579.79,477.939v-26.56h-36.833v26.56H579.79z M561.375,465.949l16.306-11.481v20.392l-10.992-7.688l-1.208,1.728
	l9.908,6.929H547.36l9.904-6.929l-1.209-1.728l-10.988,7.688v-20.392L561.375,465.949z M547.343,453.488h28.064l-14.031,9.881
	L547.343,453.488z"/>
<path d="M239.127,303.137v-8.37h-31.055v8.37h2.625v5.402H179.01v63.367h63.422v14.62c0,3.635,2.957,6.592,6.595,6.592h31.735
	v-2.109h-2.411v-8.967h2.937v-39.671h-13.1l0.003-33.832h-31.689v-5.402H239.127z M210.184,296.876h26.831v4.151h-26.831V296.876z
	 M247.97,380.039c-1.314,0.213-2.495,0.81-3.427,1.68v-32.755c0-2.105,1.466-3.866,3.427-4.343V380.039z M276.238,391.009h-27.211
	c-2.473,0-4.483-2.011-4.483-4.483c0-2.472,2.01-4.484,4.483-4.484h27.211V391.009z M279.175,379.932h-29.094V344.48h29.094V379.932
	z M247.97,342.371v0.107c-3.132,0.508-5.539,3.21-5.539,6.485v20.833H181.12v-42.319l36.801,18.236v9.433h11.358v-9.433
	l36.798-18.238v14.895H247.97z M227.167,339.74v13.298h-2.511V339.74H227.167z M222.544,353.038h-2.511V339.74h2.511V353.038z
	 M266.077,325.121l-36.798,18.24v-5.731h-11.358v5.727l-36.801-18.238v-14.472h84.958L266.077,325.121z M234.39,308.539h-21.581
	v-5.402h21.581V308.539z"/>
<rect x="256.719" y="352.313" width="15.82" height="2.109"/>
<rect x="256.719" y="357.948" width="15.82" height="2.11"/>
<rect x="256.719" y="363.58" width="15.82" height="2.109"/>
<rect x="249.026" y="385.472" width="23.513" height="2.109"/>
<path d="M320.64,301.493c6.466,0,11.728-5.261,11.728-11.728c0-6.467-5.261-11.725-11.728-11.725
	c-6.467,0-11.729,5.259-11.729,11.725C308.911,296.232,314.172,301.493,320.64,301.493z M320.64,280.148
	c5.304,0,9.618,4.314,9.618,9.616c0,5.304-4.314,9.619-9.618,9.619c-5.304,0-9.619-4.315-9.619-9.619
	C311.021,284.462,315.336,280.148,320.64,280.148z"/>
<path d="M316.561,282.146v15.244l11.077-7.625L316.561,282.146z M318.671,286.158l5.243,3.606l-5.243,3.609V286.158z"/>
<path d="M313.218,320.45h-23.994v7.769h27.366c0.071,1.697,0.459,3.333,1.195,4.863c0.266,0.551,0.573,1.081,0.915,1.583
	c-5.619,1.702-9.847,6.628-10.511,12.621c-0.944-0.374-1.872-0.557-2.806-0.557c-4.724,0-8.567,3.842-8.567,8.566
	c0,4.723,3.843,8.565,8.567,8.565h37.466c5.537,0,10.042-4.505,10.042-10.043c0-5.539-4.505-10.044-10.042-10.044
	c-1.991,0-3.898,0.577-5.525,1.651c-0.458-1.945-1.297-3.724-2.414-5.278h41.623c5.834,0,10.582-4.746,10.582-10.579
	c0-5.835-4.747-10.582-10.582-10.582c-1.264,0-2.521,0.273-3.807,0.829c-0.685-7.576-5.926-13.846-12.95-16.072v-30.51h-78.271
	v41.403h31.713V320.45z M315.328,314.636h10.622v0.995c-2.881,0.733-5.363,2.469-7.049,4.819h-3.572V314.636z M337.073,314.636
	c-0.358,0.926-0.654,1.886-0.866,2.883c-2.09-1.484-4.584-2.285-7.192-2.285c-0.322,0-0.638,0.024-0.954,0.048v-0.646H337.073z
	 M291.334,322.56h26.345c-0.503,1.107-0.847,2.3-1.006,3.55h-25.338V322.56z M335.775,349.628l1.548-1.505
	c1.486-1.444,3.448-2.239,5.525-2.239c4.374,0,7.932,3.559,7.932,7.934c0,4.374-3.559,7.933-7.932,7.933h-37.466
	c-3.561,0-6.457-2.896-6.457-6.455c0-3.56,2.896-6.457,6.457-6.457c1.035,0,2.092,0.33,3.233,1.007l1.594,0.946v-1.854
	c0-7.063,5.746-12.81,12.809-12.81c6.532,0,11.796,4.775,12.521,11.352L335.775,349.628z M370.69,321.505v1.855l1.595-0.949
	c1.491-0.886,2.88-1.317,4.247-1.317c4.671,0,8.47,3.801,8.47,8.473c0,4.67-3.799,8.47-8.47,8.47H333.08
	c-2.641-2.503-6.189-4.018-10.062-4.018c-0.688,0-1.362,0.061-2.026,0.152c-0.504-0.62-0.958-1.279-1.306-2.006
	c-0.674-1.401-1.016-2.908-1.016-4.476c0-5.704,4.64-10.347,10.343-10.347c2.705,0,5.264,1.038,7.205,2.923l1.548,1.503l0.235-2.146
	c0.935-8.489,7.73-14.651,16.157-14.651C363.274,304.973,370.69,312.39,370.69,321.505z M357.663,275.342v27.855
	c-1.134-0.218-2.306-0.333-3.503-0.333c-2.477,0-4.839,0.512-7.005,1.416h-63.539v-28.938H357.663z M283.615,306.388h59.796
	c-2.201,1.609-4.034,3.702-5.353,6.139h-54.443V306.388z"/>
<rect x="337.09" y="327.242" width="28.621" height="2.109"/>
<rect x="348.185" y="317.218" width="1.969" height="2.108"/>
<rect x="352.519" y="317.218" width="1.969" height="2.108"/>
<rect x="356.852" y="317.218" width="1.967" height="2.108"/>
<rect x="331.389" y="355.097" width="2.041" height="2.108"/>
<rect x="326.903" y="355.097" width="2.039" height="2.108"/>
<rect x="322.417" y="355.097" width="2.039" height="2.108"/>
<rect x="317.931" y="355.097" width="2.039" height="2.108"/>
<rect x="313.446" y="355.097" width="2.039" height="2.108"/>
<rect x="317.213" y="346.241" width="9.982" height="2.109"/>
<path d="M356.383,504.295v-1.055c0-13.581-6.716-17.455-12.115-20.567c-3.68-2.122-6.348-3.697-6.512-7.641
	c4.258-3.465,6.955-10,6.955-18.023c0-9.919-5.886-16.847-14.315-16.847c-8.431,0-14.318,6.928-14.318,16.847
	c0,8.025,2.698,14.561,6.958,18.025c-0.165,3.943-2.833,5.517-6.514,7.639c-3.034,1.75-6.422,3.72-8.863,7.501
	c-2.329-2.155-4.923-3.659-7.304-5.034c-4.367-2.518-7.812-4.542-7.976-9.503c5.14-4.123,8.4-11.986,8.4-21.656
	c0-11.844-7.015-20.116-17.061-20.116c-10.044,0-17.06,8.272-17.06,20.116c0,9.67,3.261,17.533,8.4,21.656
	c-0.165,4.961-3.61,6.984-7.975,9.503c-2.382,1.375-4.975,2.879-7.305,5.034c-2.439-3.779-5.828-5.751-8.862-7.501
	c-3.683-2.122-6.349-3.697-6.515-7.639c4.26-3.465,6.957-10,6.957-18.025c0-9.919-5.888-16.847-14.317-16.847
	c-8.428,0-14.314,6.928-14.314,16.847c0,8.023,2.696,14.559,6.955,18.023c-0.166,3.943-2.833,5.519-6.512,7.641
	c-5.398,3.112-12.115,6.986-12.115,20.567v1.055h41.864c-0.225,1.668-0.35,3.487-0.35,5.484v1.056h62.297v-1.056
	c0-1.997-0.125-3.816-0.35-5.484H356.383z M318.19,457.009c0-0.186,0.014-0.364,0.019-0.549l15.519-5.963l-0.757-1.971
	l-14.586,5.604c0.958-7.199,5.541-11.858,12.013-11.858c7.299,0,12.203,5.922,12.203,14.736c0,10.786-5.132,18.612-12.203,18.612
	C323.323,475.621,318.19,467.795,318.19,457.009z M317.577,484.502c3.471-2.001,6.756-3.919,7.451-8.136
	c1.637,0.875,3.436,1.364,5.368,1.364c1.931,0,3.731-0.489,5.367-1.365c0.364,2.207,1.445,3.779,2.887,5.065l-14.907,5.725
	l0.759,1.971l16.121-6.191c0.827,0.541,1.7,1.051,2.591,1.564c5.033,2.903,10.717,6.18,11.044,17.688h-40.106
	c-0.947-4.642-2.766-7.942-4.971-10.444C311.356,488.118,314.508,486.272,317.577,484.502z M268.79,454.699l22.553-8.666
	l-0.757-1.972l-21.762,8.362c0.555-9.903,6.393-16.45,14.894-16.45c8.942,0,14.95,7.235,14.95,18.007
	c0,13.14-6.287,22.679-14.95,22.679C275.217,476.659,269.019,467.463,268.79,454.699z M224.838,457.009
	c0-0.186,0.015-0.364,0.02-0.549l15.518-5.963l-0.757-1.971l-14.587,5.604c0.958-7.199,5.538-11.858,12.01-11.858
	c7.3,0,12.207,5.922,12.207,14.736c0,10.786-5.134,18.612-12.207,18.612C229.971,475.621,224.838,467.795,224.838,457.009z
	 M213.18,502.186c0.328-11.508,6.012-14.784,11.043-17.688c3.472-2.001,6.755-3.916,7.45-8.134c1.638,0.876,3.438,1.365,5.368,1.365
	c1.931,0,3.73-0.489,5.367-1.364c0.355,2.153,1.395,3.701,2.783,4.968l-15.158,5.821l0.755,1.971l16.215-6.225l-0.071-0.189
	c0.923,0.628,1.917,1.205,2.929,1.789c3.067,1.767,6.221,3.616,8.395,7.24c-2.206,2.502-4.025,5.803-4.972,10.444H213.18z
	 M254.693,508.725c0.328-14.189,7.287-18.205,13.445-21.756c4.216-2.434,8.212-4.756,8.934-9.958
	c2.015,1.133,4.249,1.757,6.646,1.757c2.397,0,4.631-0.624,6.645-1.757c0.461,3.313,2.245,5.463,4.578,7.209l-21.384,8.216
	l0.757,1.972l22.77-8.748c0.721,0.444,1.464,0.876,2.217,1.31c6.157,3.551,13.116,7.567,13.445,21.756H254.693z"/>
<path d="M528.537,374.393h28.759l9.701-51.792h3.172V306.6h-54.502v16.001h3.171L528.537,374.393z M555.544,372.283h-25.255
	l-9.305-49.683h43.865L555.544,372.283z M517.78,308.709h50.275v11.782H517.78V308.709z"/>
<path d="M542.917,356.995c5.113,0,9.274-5.855,9.274-13.052c0-7.197-4.161-13.053-9.274-13.053c-5.114,0-9.276,5.856-9.276,13.053
	C533.641,351.14,537.803,356.995,542.917,356.995z M542.917,333c3.949,0,7.165,4.91,7.165,10.943s-3.216,10.942-7.165,10.942
	c-3.952,0-7.163-4.909-7.163-10.942S538.965,333,542.917,333z"/>
<path d="M543.39,347.358c0.015,1.052-0.424,2.101-1.201,2.877l1.491,1.495c1.178-1.178,1.84-2.78,1.819-4.4
	c-0.021-1.575-0.673-3.05-1.904-4.21c-0.882-0.707-1.108-1.647-1.144-2.312c-0.063-1.147,0.396-2.329,1.229-3.162l-1.491-1.491
	c-1.252,1.249-1.94,3.032-1.846,4.768c0.082,1.546,0.77,2.91,1.865,3.786C542.957,345.417,543.376,346.357,543.39,347.358z"/>
<path d="M543.698,302.313c2.021-2.019,3.158-4.767,3.12-7.537c-0.034-2.686-1.151-5.205-3.204-7.148
	c-1.485-1.192-2.362-2.955-2.473-4.963c-0.132-2.393,0.826-4.854,2.557-6.586l-1.493-1.492c-2.146,2.149-3.332,5.211-3.171,8.193
	c0.145,2.614,1.299,4.921,3.19,6.436c1.574,1.49,2.455,3.476,2.485,5.589c0.026,2.204-0.885,4.397-2.505,6.017L543.698,302.313z"/>
<path d="M533.607,302.313c2.017-2.021,3.154-4.768,3.117-7.539c-0.037-2.686-1.149-5.205-3.204-7.146
	c-1.485-1.192-2.36-2.955-2.471-4.964c-0.131-2.393,0.824-4.854,2.558-6.585l-1.495-1.492c-2.148,2.147-3.333,5.21-3.171,8.192
	c0.144,2.615,1.299,4.922,3.192,6.438c1.57,1.49,2.451,3.475,2.477,5.587c0.031,2.204-0.88,4.397-2.499,6.019L533.607,302.313z"/>
<path d="M553.79,302.313c2.02-2.021,3.157-4.768,3.121-7.539c-0.038-2.686-1.152-5.205-3.207-7.146
	c-1.482-1.191-2.36-2.953-2.468-4.963c-0.133-2.393,0.824-4.854,2.554-6.586l-1.493-1.492c-2.146,2.149-3.332,5.211-3.17,8.193
	c0.143,2.616,1.297,4.921,3.19,6.436c1.572,1.49,2.453,3.475,2.481,5.586c0.03,2.206-0.882,4.398-2.502,6.02L553.79,302.313z"/>
<rect x="661.506" y="428.935" width="42.213" height="2.109"/>
</svg>
